<svg xmlns="http://www.w3.org/2000/svg"  viewBox="0 0 512 512" width="128px" height="128px"><path fill="#f4f8fc" d="M494.56,304l-9.61,4.81a36.556,36.556,0,0,0-13.05,10.96,35.877,35.877,0,0,0-3.32,5.4l-4.8,9.61-4.5-8.99v-.01l-.31-.61a36.553,36.553,0,0,0-16.37-16.36l-1.75-.88h-.01L432.99,304l9.61-4.81a36.553,36.553,0,0,0,16.37-16.36l4.81-9.62,4.8,9.62a36.6,36.6,0,0,0,16.37,16.36Z"/><polygon fill="#6addc7" points="501 357.69 445.85 412.84 423.68 435.01 413.04 445.65 452.94 357.69 501 357.69"/><polygon fill="#6addc7" points="373.14 357.69 325.08 357.69 413.04 445.65 373.14 357.69"/><polygon fill="#71ffe4" points="452.94 357.69 413.04 445.65 373.14 357.69 452.94 357.69"/><path fill="#71ffe4" d="M459.28,325.78v.01l-6.34,31.9-39.9-49.76h27.81l1.75.88a36.553,36.553,0,0,1,16.37,16.36Z"/><polygon fill="#71ffe4" points="363.26 307.93 373.14 357.69 413.04 307.93 363.26 307.93"/><path fill="#55d8d8" d="M471.9,319.77,501,357.69H452.94l6.34-31.9,4.5,8.99,4.8-9.61A35.877,35.877,0,0,1,471.9,319.77Z"/><polygon fill="#55d8d8" points="413.04 307.93 452.94 357.69 373.14 357.69 413.04 307.93"/><polygon fill="#55d8d8" points="363.26 307.93 325.08 357.69 373.14 357.69 363.26 307.93"/><path fill="#6d7486" d="M256,59.08l4.67,11.74a133.9,133.9,0,0,1,.27,98.33,14.473,14.473,0,0,0-4.13-.6h-3.87V142.59a61.249,61.249,0,0,0-32.7-54.2c-4.4,17.31-24.37,30.38-48.34,30.38-22.1,0-40.8-11.11-47.04-26.41l-.1-.25a61.188,61.188,0,0,0-26.55,50.48v25.96H94.34a14.322,14.322,0,0,0-5.99,1.3L83.63,158a101.92,101.92,0,0,1,0-75.33l.74-1.84A15.865,15.865,0,0,1,99.11,70.82,19.12,19.12,0,0,0,118.24,51.7a19.132,19.132,0,0,1,14.74-18.62,18.112,18.112,0,0,1,6.4-.25c13.73,1.72,93.48,11.06,121.29-.26v9.76A32.241,32.241,0,0,1,256,59.08Z"/><path fill="#efada3" d="M131.26,300.42V274.97l.67-.96a77.388,77.388,0,0,0,87.3-.01l.67.97v45.49a32.354,32.354,0,0,1-32.36,32.35H163.61a32.345,32.345,0,0,1-32.35-32.35Z"/><path fill="#ffd8b7" d="M260.94,169.15a14.51,14.51,0,0,1-4.13,28.42h-3.87v12.56a77.365,77.365,0,0,1-154.73,0V197.57H94.34a14.509,14.509,0,0,1-5.99-27.72,14.322,14.322,0,0,1,5.99-1.3h3.87V142.59a61.188,61.188,0,0,1,26.55-50.48l.1.25c6.24,15.3,24.94,26.41,47.04,26.41,23.97,0,43.94-13.07,48.34-30.38a61.249,61.249,0,0,1,32.7,54.2v25.96h3.87A14.473,14.473,0,0,1,260.94,169.15Z"/><path fill="#604af3" d="M163.61,352.81l-48.48-25.5H67.46A56.463,56.463,0,0,0,11,383.77v95.66H175.58V352.81Z"/><polygon fill="#604af3" points="296 327.31 236.03 327.31 236.02 327.31 187.54 352.81 175.58 352.81 175.58 479.43 296 479.43 296 327.31"/><path fill="#604af3" d="M236.02,327.31a41.029,41.029,0,0,1-10.03,33.65l-14.31,15.99-24.14-24.14a32.354,32.354,0,0,0,32.36-32.35V300.43A41.038,41.038,0,0,1,236.02,327.31Z"/><path fill="#604af3" d="M163.61,352.81l-24.14,24.14-14.31-15.99a41.228,41.228,0,0,1,6.1-60.54v20.04A32.345,32.345,0,0,0,163.61,352.81Z"/><path fill="#edb740" d="M403.85,461.62v2.31a15.5,15.5,0,0,1-15.5,15.5H271.38a15.5,15.5,0,0,1-15.49-15.5v-2.31a15.5,15.5,0,0,1,15.49-15.49H388.35A15.5,15.5,0,0,1,403.85,461.62Z"/><path fill="#edb740" d="M380.23,412.84H368.24v-.08h-95.7a16.645,16.645,0,1,1,0-33.29h74.32Z"/><path fill="#edb740" d="M359.58,312.72l-25.57,33.33-.03-.03H272.54a16.651,16.651,0,0,1-16.65-16.65,15.5,15.5,0,0,1,.13-2.06,16.638,16.638,0,0,1,16.52-14.59Z"/><path fill="#ffdb00" d="M380.23,412.84l22.54,22.54a16.652,16.652,0,0,1-15.57,10.75H272.54a16.645,16.645,0,1,1,0-33.29H380.23Z"/><path fill="#ffdb00" d="M346.78,379.39H272.54a16.65,16.65,0,1,1,0-33.3h61.44l-8.9,11.6Z"/><path fill="#ffdb00" d="M403.85,295.24v1.67a15.771,15.771,0,0,1-4.48,11.02H363.26l-3.68,4.79H271.71a15.814,15.814,0,0,1-15.82-15.81v-1.67a15.814,15.814,0,0,1,15.82-15.81H388.03A15.814,15.814,0,0,1,403.85,295.24Z"/><path fill="#efada3" d="M161.93,274.01a77.894,77.894,0,0,1-11.06-9.18,77.118,77.118,0,0,1-22.66-54.7V142.59a60.969,60.969,0,0,1,10.2-33.854A38.025,38.025,0,0,1,124.86,92.36l-.1-.25a61.188,61.188,0,0,0-26.55,50.48v25.96H94.34a14.524,14.524,0,0,0-10.25,4.25,14.51,14.51,0,0,0,10.25,24.77h3.87v12.56a77.118,77.118,0,0,0,22.66,54.7,77.894,77.894,0,0,0,11.06,9.18,77.524,77.524,0,0,0,58.649,12.022A76.988,76.988,0,0,1,161.93,274.01Z"/><path fill="#867af4" d="M97.46,327.31h-30A56.463,56.463,0,0,0,11,383.77v95.66H41V383.77A56.463,56.463,0,0,1,97.46,327.31Z"/><path fill="#284268" d="M162.018,80.671h10.1a6,6,0,0,0,0-12h-10.1a6,6,0,0,0,0,12Z"/><path fill="#284268" d="M200.451,402.014a8.955,8.955,0,1,0,8.955,8.955A8.966,8.966,0,0,0,200.451,402.014Z"/><path fill="#284268" d="M200.451,431.562a8.956,8.956,0,1,0,8.955,8.956A8.966,8.966,0,0,0,200.451,431.562Z"/><path fill="#284268" d="M506.543,355.393a5.957,5.957,0,0,0-.793-1.35l.01-.007-26.134-34.061a30.628,30.628,0,0,1,8-5.8l9.615-4.808a6,6,0,0,0,0-10.732l-9.615-4.808a30.786,30.786,0,0,1-13.681-13.681l-4.807-9.615a6,6,0,0,0-10.733,0l-4.808,9.616a30.781,30.781,0,0,1-13.68,13.68l-9.615,4.808a5.983,5.983,0,0,0-2.934,3.3h-18.13a21.9,21.9,0,0,0,.6-5.025v-1.665a21.839,21.839,0,0,0-21.815-21.814H271.705a21.839,21.839,0,0,0-21.814,21.814v1.665a21.761,21.761,0,0,0,7.062,16.054,22.709,22.709,0,0,0-5.576,8.352h-10.5A47.356,47.356,0,0,0,225.9,297.539v-21a83.273,83.273,0,0,0,33.045-66.413v-6.669a20.484,20.484,0,0,0,9.489-37.26A139.355,139.355,0,0,0,266.246,68.6l-3.634-9.134a38.094,38.094,0,0,0,4.059-17.138V32.573a6,6,0,0,0-8.261-5.558c-20.357,8.281-76.439,5.1-118.281-.137a24.163,24.163,0,0,0-8.524.359A25.017,25.017,0,0,0,112.235,51.7,13.139,13.139,0,0,1,99.111,64.823a21.757,21.757,0,0,0-20.32,13.784l-.735,1.849a107.461,107.461,0,0,0,0,79.764l2.916,7.331a20.48,20.48,0,0,0,11.239,35.906v6.669a83.277,83.277,0,0,0,33.046,66.414v21a47.361,47.361,0,0,0-14.986,23.773H67.458A62.53,62.53,0,0,0,5,383.771v95.656a6,6,0,0,0,6,6H388.354a21.517,21.517,0,0,0,21.493-21.492v-2.311a21.417,21.417,0,0,0-6.961-15.789c.316-.3.621-.616.919-.938l4.993,4.994a6,6,0,0,0,8.485,0l87.959-87.96A6,6,0,0,0,506.543,355.393Zm-42.768-68.8A42.9,42.9,0,0,0,481.185,304a42.9,42.9,0,0,0-17.41,17.409A42.892,42.892,0,0,0,446.366,304,42.894,42.894,0,0,0,463.775,286.589Zm-24.339,27.342.486.243a30.771,30.771,0,0,1,13.052,12.542l-3.412,17.172-24.02-29.957Zm-26.4,3.59,27.4,34.167H385.643Zm-36.522,26.366-5.951-29.956h29.971Zm-7.243,19.8,24.664,54.374-54.374-54.374Zm-32.029-12,22.709-29.595,5.878,29.595Zm-75.355-56.447a9.824,9.824,0,0,1,9.814-9.814H388.032a9.825,9.825,0,0,1,9.815,9.814v1.665a9.758,9.758,0,0,1-1.393,5.025H363.259a6,6,0,0,0-4.76,2.347l-1.875,2.444H271.705a9.826,9.826,0,0,1-9.814-9.816Zm10.646,23.481h74.88l-16.34,21.3h-58.54a10.648,10.648,0,0,1,0-21.3Zm0,33.372h49.274l-1.491,1.942.01.007a5.943,5.943,0,0,0,.508,7.888L332.3,373.389H272.537a10.648,10.648,0,0,1,0-21.3Zm0,33.371h71.835l21.295,21.3h-93.13a10.648,10.648,0,0,1,0-21.3Zm0,33.372H377.744L395.309,436.4a10.609,10.609,0,0,1-8.11,3.73H272.537a10.648,10.648,0,0,1,0-21.3Zm-42.225-88.911a34.829,34.829,0,0,1-8.793,27.034l-10.081,11.264-11.476-11.476A38.424,38.424,0,0,0,225.9,320.455v-4.444A35.12,35.12,0,0,1,230.312,329.926ZM187.54,346.812H163.613a26.386,26.386,0,0,1-26.356-26.357v-36.33a83.072,83.072,0,0,0,76.639,0v36.33A26.386,26.386,0,0,1,187.54,346.812ZM89.206,84.892l.735-1.849a9.818,9.818,0,0,1,9.17-6.22A25.153,25.153,0,0,0,124.235,51.7a13.066,13.066,0,0,1,10.111-12.779,12.244,12.244,0,0,1,4.294-.133c6.672.835,30.421,3.651,55.835,4.8,26.648,1.2,46.826.226,60.2-2.9v1.652a26.369,26.369,0,0,1-26.339,26.339H192.075a6,6,0,0,0,0,12h36.257a38.193,38.193,0,0,0,25.814-10.018l.95,2.388a127.366,127.366,0,0,1,3.845,83.47V142.589A67.13,67.13,0,0,0,223.071,83.1a6,6,0,0,0-8.683,3.963c-3.892,14.908-21.728,25.71-42.492,25.71-18.964,0-36.007-9.307-41.463-22.638l-.083-.213a6,6,0,0,0-8.99-2.751,67.3,67.3,0,0,0-29.149,55.422v20.076c-.086.009-.167.028-.252.038l-2.753-6.919A95.507,95.507,0,0,1,89.206,84.892Zm15,125.234V197.567a6,6,0,0,0-6-6H94.343a8.506,8.506,0,1,1,0-17.012h3.868a6,6,0,0,0,6-6V142.589a55.283,55.283,0,0,1,18.582-41.329c9.334,14.3,28.089,23.509,49.1,23.509,22.922,0,43.2-11.2,51.393-27.516a55.134,55.134,0,0,1,23.652,45.336v25.966a6,6,0,0,0,6,6h3.87c.048,0,.1.007.144.007a5.985,5.985,0,0,0,3.714,1.293,5.707,5.707,0,0,0,.57-.043,8.5,8.5,0,0,1-4.428,15.755h-3.87a6,6,0,0,0-6,6v12.559a71.365,71.365,0,0,1-142.73,0Zm16.631,119.8a35.119,35.119,0,0,1,4.415-13.915v4.444a38.424,38.424,0,0,0,25.934,36.293l-11.475,11.477L129.635,356.96A34.822,34.822,0,0,1,120.842,329.926Zm48.734,143.5H17V383.771a50.516,50.516,0,0,1,50.458-50.459h41.213a47.327,47.327,0,0,0,12.021,31.65L135,380.952a6,6,0,0,0,4.305,2l.166,0a6,6,0,0,0,4.242-1.758L166.1,358.812h3.478Zm87.667-94a22.61,22.61,0,0,0,0,33.371,22.6,22.6,0,0,0-.371,33.018,21.417,21.417,0,0,0-6.981,15.808v2.311a21.319,21.319,0,0,0,2.239,9.492H181.576V358.812h3.48l22.382,22.381a6,6,0,0,0,4.242,1.758l.166,0a6,6,0,0,0,4.3-2l14.31-15.99a47.328,47.328,0,0,0,12.022-31.65h7.759a22.634,22.634,0,0,0,7,12.743,22.611,22.611,0,0,0,0,33.372Zm140.6,84.508a9.5,9.5,0,0,1-9.493,9.492H271.383a9.5,9.5,0,0,1-9.492-9.492v-2.311a9.5,9.5,0,0,1,9.492-9.492H388.354a9.5,9.5,0,0,1,9.493,9.492Zm15.193-32.811-30.589-67.436h61.178Zm19.1-13.062,24.664-54.374h29.71Zm28.106-66.374,2.2-11.066a5.92,5.92,0,0,0,6.7-3.153l3.465-6.93,16.226,21.149Z"/></svg>